<svg width="402" height="142" viewBox="0 0 402 142" fill="none" xmlns="http://www.w3.org/2000/svg">
<path d="M74.5632 60.0343L75.7897 61.193C73.4676 63.5691 70.9105 65.8824 68.2579 67.8932C67.2969 68.5682 63.3948 71.5797 60.4 71.7615C58.0195 71.9061 55.4689 70.5194 55.1892 65.912C55.124 64.8369 55.1936 63.4454 55.3587 62.3563C55.675 59.9478 56.5682 56.8877 57.3638 54.7585C54.7952 58.1515 49.9858 63.9928 44.9879 67.9957C40.432 71.6636 36.2924 73.3022 31.92 73.6447C37.7531 66.8935 40.1797 62.43 44.9586 54.8179C47.2061 51.2132 48.9673 48.4857 52.0316 44.3689C57.8715 36.4612 64.7912 28.5649 71.3201 21.8485C64.7885 24.7114 60.3513 29.0657 51.0934 40.341C45.2068 47.4809 41.7819 52.0049 36.9586 57.6158C30.9138 64.6882 26.7512 68.4863 22.9701 70.951C19.1122 73.4203 15.2611 74.7332 11.4984 74.9616C5.04796 75.3532 2.92307 72.091 2.75524 69.3265C2.59207 66.6388 5.11191 63.7112 7.72279 63.5527C9.2586 63.4595 10.1686 64.4833 10.2385 65.6351C10.3224 67.0173 9.38474 68.0762 8.15609 68.1508C7.77213 68.1741 7.38352 68.1206 6.99024 67.9904C6.52017 67.8648 6.20835 67.8066 5.90119 67.8253C5.05649 67.8766 4.48412 68.605 4.54939 69.68C4.65196 71.3694 6.40908 73.652 10.8629 73.3816C15.4704 73.1019 19.9821 69.9763 22.1158 68.3053C30.0549 61.9657 36.1831 51.1887 38.3165 46.9743C39.4867 44.6681 41.7411 39.9068 42.6204 36.6163C43.1275 34.8129 43.7042 31.6178 43.569 29.3909C43.4432 27.3176 42.5236 23.5968 35.9196 23.9977C30.2371 24.3427 25.3949 27.103 22.0723 30.7731C18.894 34.2802 18.8315 37.0586 18.8921 38.0569C18.9434 38.9016 19.1436 39.6602 19.5741 40.4048C20.6983 42.4175 22.425 42.9293 24.2679 42.8174C28.4146 42.5656 32.2539 39.7891 34.4967 36.1076C36.0416 33.6245 36.9883 30.1758 37.4675 27.9116L38.6078 28.9214C38.3289 31.9442 37.2681 34.7832 35.8675 37.1034C33.4804 40.9479 29.2804 44.1316 24.4426 44.4253C19.6048 44.719 17.4799 41.4568 17.2841 38.2316C17.0697 34.6992 19.2357 31.0223 22.1535 28.3018C26.3836 24.3454 31.9868 22.695 35.9032 22.4572C41.8928 22.0936 44.4179 24.3296 45.4117 26.7356C45.8563 27.7106 46.003 28.8578 46.0683 29.9328C46.2315 32.6205 45.7548 36.1948 45.0733 38.9338C44.6964 40.344 43.3962 45.5869 39.9016 51.5025C51.6515 36.8388 56.3492 31.698 58.5945 29.3265C67.4989 19.8454 72.3367 19.5517 75.2828 19.8353C64.8079 32.6488 57.8652 42.7045 51.8415 51.3942C46.2459 59.5183 42.1277 65.3176 35.7198 71.4872C39.0333 70.207 41.3299 68.6803 43.9825 66.6694C48.1777 63.4089 52.0238 59.4758 59.432 49.469C63.6363 43.8186 66.8168 39.0781 70.9909 34.2003C74.3716 30.2184 77.8665 26.8463 82.4503 23.6392C86.0732 21.107 89.7334 19.1892 94.4944 18.9001C98.6411 18.6484 99.2324 20.7706 99.2883 21.692C99.3116 22.076 99.1813 22.4693 99.0511 22.8625C98.6463 23.812 97.69 24.5637 96.6149 24.629C96.2309 24.6523 95.9191 24.5942 95.6026 24.4592C95.0464 24.1847 94.6298 23.6705 94.5972 23.1329C94.5832 22.9026 94.5646 22.5954 94.7042 22.3557C94.9019 21.8042 95.4929 21.3829 96.0165 21.1199C95.8489 20.8989 95.686 20.7546 95.451 20.6918C94.9762 20.4894 94.4387 20.5221 93.978 20.55C88.9098 20.8577 84.6564 24.4301 82.5367 26.3315C79.6189 29.0521 76.0125 33.1247 72.9343 37.0111C69.2162 41.7842 65.0399 47.8953 62.0875 53.8551C60.9894 56.0798 60.0495 58.372 59.1097 60.6642C58.2373 62.7982 57.3789 65.1625 57.528 67.6198C57.5607 68.1573 57.6701 68.6902 57.9284 69.1369C58.4451 70.0305 59.2224 70.1374 60.0671 70.0861C60.9885 70.0302 61.896 69.7439 62.7221 69.3854C64.451 68.6639 65.9983 67.4909 67.4689 66.3226C70.1168 64.235 72.3854 62.2475 74.5632 60.0343ZM98.3933 48.9534L100.462 46.2073L104.378 45.9695L90.1879 67.4097C97.0755 64.0627 101.703 60.3134 104.482 57.8326L105.396 58.9332C102.772 61.4047 97.2641 65.901 88.3452 70.065C87.6379 71.1099 83.5616 77.6003 78.4125 82.9227C76.0904 85.2988 73.6054 87.5307 70.6131 89.0226C69.1192 89.8069 67.4578 90.3702 65.7684 90.4728C63.7718 90.594 62.2569 89.7611 62.1543 88.0717C62.103 87.227 62.2495 85.8308 64.0387 83.5641C68.2617 78.2209 78.1811 72.763 85.092 69.8L90.5387 61.762C89.0193 63.3957 86.3272 66.0255 84.3378 67.5336C82.2763 69.1232 79.2164 70.7733 76.8359 70.9179C74.3018 71.0717 73.1963 69.3661 73.0565 67.0624C72.8933 64.3747 74.1123 61.6032 75.3012 59.6041C76.2784 57.9263 77.4906 56.3112 78.7889 54.8451C79.7987 53.7047 80.9668 52.6318 82.1395 51.6358C85.7344 48.6429 90.6487 45.8011 94.4882 45.568C95.1026 45.5307 96.1823 45.5422 96.9828 46.0331C98.1813 46.7311 98.328 47.8783 98.3793 48.723L98.3933 48.9534ZM94.6723 47.3295C94.2883 47.3528 92.6036 47.5322 89.8021 49.6291C88.2501 50.7253 86.8703 52.1193 85.5673 53.5086C84.4807 54.6536 83.5477 55.7893 82.5426 57.0064C79.6714 60.4949 78.2568 62.5847 77.3471 64.1043C75.8069 66.6642 75.7907 67.6671 75.8094 67.9743C75.8467 68.5886 76.1865 69.1075 76.5798 69.2378C76.8962 69.3727 77.2034 69.3541 77.5106 69.3354C79.0464 69.2422 80.5309 68.3043 81.7176 67.5385C84.3842 65.7581 87.0809 63.2051 88.677 61.5667C91.2155 58.9463 93.726 55.8651 95.1127 53.3145C96.7832 50.3614 96.7132 49.2095 96.6946 48.9024C96.6713 48.5184 96.5152 47.2176 94.6723 47.3295ZM83.7542 71.8852C79.1051 74.0172 71.189 78.1973 66.6123 82.7913C65.8142 83.6105 63.7853 85.7376 63.8785 87.2734C63.9205 87.9645 64.365 88.9395 66.208 88.8276C67.9742 88.7204 69.4587 87.7824 71.0061 86.6094C72.1113 85.7716 77.0372 81.8501 83.7542 71.8852ZM109.631 58.5219C108.703 59.7344 107.717 61.2586 107.023 62.5339C106.123 64.2071 106.021 65.0611 106.053 65.5987C106.137 66.9809 107.322 67.4485 108.857 67.3553C112.236 67.1501 116.176 64.7529 118.03 63.5613C119.808 62.3743 122.989 60.1773 126.493 56.9587L127.335 58.1407C124.634 60.617 121.327 63.284 118.435 65.1553C115.841 66.8542 111.657 69.0351 108.509 69.2262C106.128 69.3707 104.906 68.2888 104.399 67.5489C103.896 66.8857 103.691 66.0504 103.64 65.2057C103.524 63.2859 104.219 60.7773 105.11 58.9505C106.473 56.016 109.138 52.9255 111.613 50.5401C115.915 46.5023 120.997 43.8815 124.914 43.6438C126.373 43.5552 127.169 43.9693 127.58 44.4068C127.829 44.6999 128.011 45.1513 128.034 45.5353C128.058 45.9193 128.151 47.4551 125.757 49.9126C122.055 53.6828 115.158 56.8761 109.631 58.5219ZM111.195 56.346C114.902 55.1961 120.761 52.6823 124.463 48.9122C126.275 47.0294 126.305 46.2569 126.287 45.9497C126.264 45.5657 125.924 45.0468 124.849 45.1121C122.929 45.2287 120.714 46.8275 119.83 47.4978C116.735 49.8438 113.48 53.3555 111.195 56.346ZM123.924 33.6843C125.306 33.6004 125.99 34.715 126.051 35.7132C126.167 37.633 124.255 39.1364 122.642 39.2343C121.49 39.3043 120.594 38.5109 120.524 37.359C120.422 35.6696 122.157 33.7915 123.924 33.6843ZM134.521 33.0409C135.903 32.957 136.587 34.0716 136.648 35.0699C136.764 36.9896 134.852 38.4931 133.239 38.591C132.087 38.6609 131.191 37.8675 131.121 36.7156C131.019 35.0262 132.755 33.1482 134.521 33.0409ZM170.377 54.4486L171.513 55.3816C168.709 58.7119 166.436 60.6226 163.869 62.7823C163.211 63.3618 159.981 66.0242 157.601 66.1687C154.913 66.3319 154.606 63.8071 154.554 62.9624C154.461 61.4266 154.752 59.8675 154.931 59.0088C153.344 60.8008 151.378 62.6928 149.461 64.1195C145.852 66.882 143.855 67.0032 143.318 67.0359C141.859 67.1244 140.344 66.2915 140.199 63.911C140.069 61.7609 140.976 58.9312 144.031 54.6608L147.658 49.662C149.361 47.2464 151.462 45.0379 151.895 44.5491C150.757 44.8494 149.936 45.2847 148.831 46.1225C147.216 47.4537 145.71 49.3178 143.416 52.1547C142.267 53.5347 141.194 54.9101 140.126 56.3622L137.206 60.3161C133.074 65.8851 130.249 67.598 127.638 67.7565C125.565 67.8824 123.508 67.0053 123.345 64.3177C123.256 62.8587 123.714 61.5206 124.426 60.5525C125.278 59.3447 126.397 58.7372 127.703 58.658C129.008 58.5787 129.746 59.3046 129.806 60.3029C129.844 60.9173 129.569 61.4734 129.209 61.8807C128.771 62.2926 128.089 62.4882 127.403 62.6069C126.337 62.8258 124.82 63.2262 124.904 64.6084C124.964 65.6067 125.635 66.4909 127.171 66.3976C128.092 66.3417 128.923 66.06 129.667 65.6294C131.906 64.4145 133.767 62.0664 135.912 59.3156L139.13 55.1895C143.781 49.2808 145.868 46.8419 147.997 45.0941C149.761 43.6767 151.783 42.7062 153.626 42.5943C154.471 42.543 155.402 42.6406 156.107 42.8291L143.871 60.9135C143.515 61.3975 142.966 62.5099 142.687 62.9893C142.48 63.3872 142.349 63.7805 142.382 64.318C142.438 65.2395 143.22 65.4233 143.834 65.386C145.524 65.2834 148.171 63.1958 149.2 62.3626C154.261 58.1246 160.694 51.1057 165.936 42.2323L170.39 41.9619L157.663 60.8469C156.956 61.8918 156.388 62.697 156.439 63.5417C156.458 63.8488 156.581 64.6121 157.733 64.5421C158.808 64.4769 160.23 63.774 163.018 61.4467C163.969 60.6182 166.978 58.1233 170.377 54.4486ZM213.234 50.999L213.778 52.3532C213.178 52.6209 212.419 52.8211 211.728 52.863C211.037 52.905 209.036 52.9494 207.316 51.2811C205.257 54.1808 202.733 57.0316 200.248 59.2635C198.056 61.2463 194.586 63.7692 191.131 63.979C190.44 64.0209 187.052 64.0725 186.837 60.5401C186.702 58.3132 187.989 55.3833 188.817 53.7916C191.986 47.5875 200.21 37.0686 204.154 32.2047C207.309 28.3136 214.206 20.0334 219.871 15.6046C221.933 14.015 224.893 11.9856 226.966 11.8597C228.348 11.7758 229.461 12.3248 229.554 13.8606C229.694 16.1643 227.125 19.5574 226.336 20.5302C220.396 28.0586 207.941 37.4471 200.979 42.1088C195.269 49.6232 192.684 54.0192 190.807 57.3703C189.834 59.125 189.357 60.1559 189.409 61.0006C189.423 61.2309 189.513 61.4567 189.599 61.6056C189.772 61.9034 190.342 62.4083 191.417 62.343C194.258 62.1705 198.016 59.3219 199.838 57.5928C202.097 55.4517 204.68 52.289 206.585 49.3987C206.529 45.9338 207.657 42.9365 209.153 40.9188C209.726 40.1904 210.303 39.5388 211.12 39.0268C211.49 38.7731 211.941 38.5915 212.402 38.5635C213.323 38.5076 213.37 39.2755 213.393 39.6595C213.449 40.581 213.054 41.684 212.158 43.434C211.537 44.6278 210.916 45.8216 210.213 46.9433C209.582 47.9835 208.947 48.947 208.312 49.9104C208.815 50.5736 209.543 51.1459 210.325 51.3297C210.637 51.3878 211.025 51.4413 211.333 51.4227C212.177 51.3714 212.859 51.1759 213.234 50.999ZM202.731 39.2277C208.862 34.8477 220.112 25.9178 224.835 19.9276C227.053 17.0954 227.511 15.7574 227.46 14.9127C227.376 13.5304 226.531 13.5817 226.224 13.6004C224.534 13.7029 221.54 16.4282 220.881 17.0076C215.185 22.2091 206.772 33.4331 202.731 39.2277ZM237.555 48.5204L238.542 49.5396C235.787 52.4044 231.548 56.2071 227.55 58.9162C223.476 61.6299 220.898 62.3259 219.208 62.4285C218.21 62.4891 214.817 62.4639 214.58 58.5475C214.533 57.7796 214.461 55.3177 216.382 51.4244C217.003 50.2306 217.701 49.0321 218.486 47.9825C219.414 46.7701 220.419 45.553 221.51 44.4847C223.981 42.0225 227.162 39.8255 229.933 38.5012C231.581 37.7075 233.698 37.0394 235.157 36.9508C237.768 36.7923 239.316 38.1628 239.423 39.9289C239.465 40.6201 239.277 41.3252 239.007 41.9581C238.255 43.5452 236.929 44.5506 235.47 44.6392C235.163 44.6579 234.856 44.6765 234.539 44.5416C233.753 44.281 233.562 43.676 233.529 43.1385C233.436 41.6027 234.876 41.2069 235.635 41.0067C236.624 40.7926 237.613 40.5784 237.557 39.6569C237.524 39.1193 237.098 38.4515 235.946 38.5215C234.103 38.6334 231.735 40.2416 230.995 40.7489C229.073 42.0988 227.323 43.7465 225.655 45.4663C224.496 46.6928 223.414 47.9146 222.414 49.2085C220.841 51.2308 219.205 53.4882 218.237 55.3196C217.611 56.4366 216.86 58.0237 216.921 59.022C216.944 59.406 217.049 59.862 217.298 60.1552C217.886 60.9673 219.038 60.8974 219.499 60.8694C220.421 60.8134 221.328 60.5271 222.231 60.164C223.508 59.624 224.704 59.0119 225.814 58.2508C229.672 55.7815 234.358 51.7204 237.555 48.5204ZM263.624 43.007C265.076 41.5316 267.561 39.2997 269.627 37.787C273.317 35.0966 275.756 34.6402 276.985 34.5656C279.211 34.4304 280.126 35.531 280.219 37.0668C280.383 39.7545 277.958 42.9846 276.962 44.3553L270.55 52.9915C269.982 53.7967 269.266 54.688 268.784 55.6421C268.654 56.0354 268.514 56.2751 268.528 56.5055C268.542 56.7359 268.556 56.9662 268.719 57.1105C268.887 57.3315 269.28 57.4618 269.741 57.4338C270.432 57.3919 271.109 57.1195 271.786 56.8472C273.357 56.0582 274.764 55.1249 276.163 54.0381C278.445 52.2809 280.786 50.212 284.055 46.9306L285.042 47.9497C281.58 51.8594 278.413 54.2868 277.457 55.0385C272.305 59.0508 269.613 59.1372 269.229 59.1605C268.691 59.1931 268.221 59.0675 267.747 58.8651C267.109 58.5185 266.371 57.7925 266.269 56.1031C266.119 53.6458 267.708 50.6206 269.493 48.2771L275.987 39.7131C276.343 39.229 276.703 38.8217 276.983 38.3423C277.19 37.9444 277.541 37.3836 277.513 36.9228C277.504 36.7692 277.413 36.5435 277.327 36.3946C277.073 36.0246 276.689 36.048 276.305 36.0713C275.537 36.1179 274.783 36.3949 274.106 36.6672C272.531 37.3794 270.148 38.7573 266.788 41.813C262.847 45.4435 259.552 49.5743 256.569 53.7632C255.294 55.6133 254.019 57.4634 252.826 59.3856L248.449 59.6513L261.459 40.3638C262.167 39.3189 262.811 38.509 262.769 37.8179C262.713 36.8964 261.869 36.9477 261.561 36.9664C260.794 37.013 259.272 37.3366 256.528 39.1217C254.972 40.1411 253.578 41.3047 252.189 42.5452C248.757 45.6823 244.953 50.3065 241.893 54.5C240.541 56.3548 239.271 58.2817 238.082 60.2807L233.705 60.5465L249.165 37.1794L253.082 36.9416L248.289 44.3234C250.183 42.5128 252.817 40.1948 254.585 38.8543C258.492 35.9195 261.012 35.5353 262.087 35.47C262.701 35.4328 263.32 35.4722 263.872 35.67C265.133 36.1329 265.429 37.194 265.471 37.8851C265.499 38.3459 265.373 38.8159 265.248 39.286C264.924 40.3076 264.173 41.8947 263.898 42.4509L263.624 43.007ZM308.111 42.4643L301.699 51.1004C300.419 52.8737 299.63 53.8465 299.682 54.6912C299.7 54.9984 299.814 55.608 300.966 55.5381C302.425 55.4495 304.799 53.9181 305.908 53.1571C308.94 51.0462 313.17 47.0898 315.204 45.0395L316.114 46.0633C313.296 49.1632 309.571 52.5493 306.909 54.4066C304.838 55.8425 302.221 57.1576 300.301 57.2741C298.074 57.4093 297.501 55.5943 297.417 54.2121C297.245 51.3708 299.502 47.9197 300.642 46.386L307.136 37.822C308.42 36.1255 308.694 35.5693 308.662 35.0318C308.615 34.2639 307.915 34.1522 307.377 34.1849C305.457 34.3014 302.714 36.0865 301.681 36.8429C300.057 38.0205 298.442 39.3517 296.985 40.7504C292.611 44.8697 289.191 49.4705 286.511 53.564L270.496 77.9666L266.196 78.2277L294.981 34.3979L298.974 34.1555L294.182 41.5372C295.056 40.7134 295.931 39.8895 296.806 39.0657C297.974 37.9928 299.224 36.9921 300.478 36.0681C302.616 34.4739 305.138 32.8564 307.903 32.6886C308.671 32.6419 311.128 32.4927 311.291 35.1804C311.436 37.5609 309.468 40.6863 308.111 42.4643ZM320.506 45.7196C319.577 46.9321 318.591 48.4564 317.897 49.7316C316.997 51.4048 316.895 52.2589 316.927 52.7964C317.011 54.1786 318.196 54.6462 319.732 54.553C323.11 54.3479 327.05 51.9506 328.904 50.759C330.682 49.5721 333.863 47.375 337.367 44.1564L338.209 45.3385C335.508 47.8147 332.202 50.4818 329.309 52.353C326.715 54.052 322.531 56.2328 319.383 56.4239C317.002 56.5685 315.781 55.4865 315.273 54.7466C314.77 54.0835 314.566 53.2481 314.514 52.4034C314.398 50.4836 315.093 47.975 315.984 46.1483C317.348 43.2138 320.012 40.1232 322.487 37.7378C326.79 33.7 331.872 31.0793 335.788 30.8415C337.247 30.7529 338.043 31.167 338.455 31.6045C338.704 31.8977 338.885 32.3491 338.909 32.733C338.932 33.117 339.025 34.6528 336.631 37.1104C332.929 40.8805 326.032 44.0738 320.506 45.7196ZM322.069 43.5437C325.776 42.3938 331.635 39.88 335.337 36.1099C337.149 34.2271 337.18 33.4546 337.161 33.1474C337.138 32.7635 336.798 32.2446 335.723 32.3098C333.803 32.4264 331.588 34.0253 330.704 34.6955C327.609 37.0415 324.354 40.5533 322.069 43.5437ZM341.888 43.2654L340.964 42.0112C343.074 39.9563 346.199 36.8378 348.579 34.1498C351.036 31.4572 353.114 28.8647 354.471 27.0868C353.963 26.3468 353.672 25.3625 353.598 24.1339C353.542 23.2124 353.725 22.4305 354.207 21.4764C354.617 20.6037 355.261 19.7938 356.413 19.7239C357.258 19.6726 358.293 20.2264 358.41 22.1461C358.503 23.6819 357.617 25.5855 356.621 26.9562C358.776 29.4459 360.524 31.5749 360.673 34.0322C360.864 37.1806 358.84 39.3845 356.445 41.8421C352.532 45.9333 352.427 45.4773 350.191 48.0023C348.316 50.1201 347.839 51.151 347.876 51.7653C347.895 52.0725 348.009 52.6821 349.007 52.6215C349.852 52.5702 351.062 52.1885 353.286 50.7432C357.288 48.1109 361.73 43.8334 363.399 42.1136L364.309 43.1374C361.423 46.3955 357.482 50.026 353.912 52.1696C350.79 54.0548 349.263 54.3016 348.649 54.3389C346.652 54.4601 345.714 52.9756 345.621 51.4398C345.547 50.2111 345.996 48.7194 347.324 46.4807C349.071 43.5229 350.744 41.8799 352.85 39.7481C355.1 37.4535 358.022 34.8097 357.878 32.4292C357.799 31.1238 356.693 29.4182 355.543 28.2548C354.471 29.6302 352.1 32.4717 349.575 35.3225C346.974 38.178 344.512 40.7938 341.888 43.2654ZM376.289 29.4617L380.82 29.1866L368.507 47.2757C368.151 47.7597 367.602 48.8721 367.323 49.3515C367.116 49.7494 366.986 50.1427 367.018 50.6802C367.07 51.5249 367.703 51.7948 368.471 51.7482C370.16 51.6456 372.831 49.942 374.6 48.6014C378.132 45.8436 382.036 41.5987 385.465 37.1515C387.611 34.4007 389.516 31.5104 391.34 28.5479L395.794 28.2775L383.067 47.1625C382.36 48.2074 381.792 49.0126 381.844 49.8573C381.862 50.1644 381.986 50.9277 383.138 50.8577C383.752 50.8204 384.736 50.5295 386.73 49.0982C387.321 48.6769 387.836 48.2603 388.422 47.7623C389.374 46.9338 392.382 44.4389 395.781 40.7642L396.917 41.6972C394.113 45.0275 391.84 46.9382 389.274 49.0979C388.615 49.6774 385.386 52.3398 383.005 52.4843C380.317 52.6475 380.01 50.1227 379.959 49.278C379.931 48.8173 379.907 48.4333 379.956 47.9679C379.977 47.0418 380.152 46.1063 380.335 45.3244C378.595 47.1257 376.475 49.0271 374.481 50.4584C373.52 51.1333 370.411 53.2489 368.108 53.3888C366.418 53.4913 364.98 52.6537 364.84 50.35C364.724 48.4303 365.396 45.5377 368.437 41.037L376.289 29.4617ZM125.657 121.435L126.643 122.455C123.888 125.319 119.649 129.122 115.652 131.831C111.577 134.545 108.999 135.241 107.31 135.343C106.311 135.404 102.919 135.379 102.681 131.462C102.634 130.695 102.562 128.233 104.483 124.339C105.105 123.146 105.803 121.947 106.587 120.897C107.515 119.685 108.52 118.468 109.611 117.4C112.083 114.937 115.263 112.74 118.035 111.416C119.682 110.622 121.8 109.954 123.259 109.866C125.869 109.707 127.417 111.078 127.524 112.844C127.566 113.535 127.378 114.24 127.108 114.873C126.356 116.46 125.03 117.466 123.571 117.554C123.264 117.573 122.957 117.591 122.64 117.457C121.854 117.196 121.663 116.591 121.63 116.053C121.537 114.518 122.977 114.122 123.736 113.922C124.725 113.707 125.714 113.493 125.658 112.572C125.625 112.034 125.199 111.366 124.048 111.436C122.205 111.548 119.836 113.157 119.096 113.664C117.174 115.014 115.424 116.661 113.756 118.381C112.597 119.608 111.515 120.83 110.515 122.123C108.942 124.146 107.306 126.403 106.339 128.235C105.713 129.352 104.961 130.939 105.022 131.937C105.045 132.321 105.15 132.777 105.399 133.07C105.988 133.882 107.14 133.812 107.6 133.784C108.522 133.728 109.429 133.442 110.332 133.079C111.61 132.539 112.806 131.927 113.916 131.166C117.773 128.696 122.46 124.635 125.657 121.435ZM167.777 119.88L168.321 121.234C167.721 121.502 166.963 121.702 166.271 121.744C165.58 121.786 163.579 121.831 161.859 120.162C159.8 123.062 157.276 125.913 154.791 128.145C152.599 130.128 149.13 132.65 145.674 132.86C144.983 132.902 141.595 132.954 141.38 129.421C141.245 127.194 142.532 124.265 143.36 122.673C146.529 116.469 154.753 105.95 158.697 101.086C161.852 97.1949 168.749 88.9147 174.414 84.4858C176.476 82.8962 179.436 80.8668 181.509 80.7409C182.891 80.657 184.004 81.2061 184.097 82.7419C184.237 85.0456 181.668 88.4386 180.879 89.4114C174.939 96.9399 162.484 106.328 155.522 110.99C149.812 118.504 147.227 122.9 145.35 126.252C144.377 128.006 143.9 129.037 143.952 129.882C143.966 130.112 144.056 130.338 144.143 130.487C144.315 130.785 144.885 131.29 145.96 131.224C148.801 131.052 152.559 128.203 154.381 126.474C156.64 124.333 159.223 121.17 161.128 118.28C161.072 114.815 162.2 111.818 163.697 109.8C164.269 109.072 164.846 108.42 165.663 107.908C166.033 107.654 166.484 107.473 166.945 107.445C167.866 107.389 167.913 108.157 167.936 108.541C167.992 109.462 167.597 110.565 166.701 112.315C166.08 113.509 165.459 114.703 164.756 115.825C164.125 116.865 163.49 117.828 162.855 118.792C163.358 119.455 164.086 120.027 164.868 120.211C165.18 120.269 165.569 120.323 165.876 120.304C166.72 120.253 167.402 120.057 167.777 119.88ZM157.274 108.109C163.405 103.729 174.655 94.799 179.378 88.8088C181.596 85.9767 182.054 84.6386 182.003 83.7939C181.919 82.4117 181.074 82.4629 180.767 82.4816C179.078 82.5842 176.083 85.3094 175.424 85.8889C169.729 91.0903 161.315 102.314 157.274 108.109ZM194.085 109.497L195.986 106.53L200.056 106.282L188.348 124.181C187.573 125.384 186.789 126.433 186.845 127.355C186.878 127.892 187.145 128.493 188.144 128.432C188.681 128.399 189.973 128.09 193.279 125.423C194.673 124.259 196.067 123.095 197.456 121.855C198.768 120.619 200.08 119.383 201.393 118.148L202.379 119.167C201.437 120.149 200.495 121.131 199.476 122.118C198.091 123.435 196.63 124.757 195.164 126.002C190.613 129.747 188.391 129.959 187.93 129.987C186.624 130.066 185.747 129.58 185.24 128.84C184.9 128.321 184.709 127.716 184.672 127.101C184.611 126.103 184.979 124.539 185.369 123.359C183.773 124.998 181.726 126.818 179.578 128.258C178.468 129.019 175.499 130.895 173.042 131.045C171.045 131.166 169.065 130.284 168.883 127.289C168.715 124.525 170.146 121.432 171.267 119.591C171.97 118.47 172.673 117.348 173.533 116.294C174.75 114.755 176.207 113.357 177.673 112.112C180.018 110.119 182.464 108.507 185.163 107.264C187.636 106.112 189.316 105.855 190.392 105.79C193.463 105.604 193.964 107.5 194.043 108.806L194.085 109.497ZM190.494 107.479C189.342 107.549 188.372 108.071 187.478 108.587C184.053 110.568 181.308 113.586 179.144 116.03C176.908 118.555 174.465 121.478 172.741 124.82C171.706 126.81 171.526 127.668 171.564 128.283C171.634 129.434 172.641 129.527 173.179 129.495C174.945 129.388 176.804 128.273 178.063 127.426C180.874 125.482 183.422 123.015 185.658 120.49C186.807 119.11 187.956 117.73 189.024 116.278C189.881 115.147 190.655 113.944 191.349 112.669C192.524 110.439 192.54 109.436 192.516 109.052C192.474 108.361 192.107 107.382 190.494 107.479ZM242.881 116.168L244.016 117.101C241.213 120.432 238.939 122.342 236.373 124.502C235.714 125.082 232.485 127.744 230.104 127.889C227.417 128.052 227.109 125.527 227.058 124.682C226.965 123.146 227.255 121.587 227.435 120.729C225.848 122.521 223.882 124.413 221.964 125.839C218.355 128.602 216.359 128.723 215.821 128.756C214.362 128.844 212.847 128.011 212.703 125.631C212.572 123.481 213.48 120.651 216.534 116.381L220.162 111.382C221.865 108.966 223.966 106.758 224.399 106.269C223.261 106.569 222.439 107.004 221.334 107.842C219.719 109.174 218.214 111.038 215.92 113.874C214.77 115.254 213.698 116.63 212.63 118.082L209.71 122.036C205.578 127.605 202.753 129.318 200.142 129.476C198.069 129.602 196.012 128.725 195.848 126.037C195.76 124.578 196.218 123.24 196.93 122.272C197.782 121.064 198.901 120.457 200.206 120.378C201.512 120.298 202.249 121.024 202.31 122.023C202.347 122.637 202.073 123.193 201.712 123.6C201.275 124.012 200.593 124.208 199.906 124.327C198.841 124.546 197.324 124.946 197.407 126.328C197.468 127.326 198.138 128.211 199.674 128.117C200.596 128.061 201.426 127.78 202.171 127.349C204.409 126.134 206.271 123.786 208.416 121.035L211.634 116.909C216.285 111.001 218.372 108.562 220.501 106.814C222.265 105.397 224.287 104.426 226.13 104.314C226.974 104.263 227.905 104.36 228.61 104.549L216.375 122.633C216.019 123.117 215.469 124.23 215.19 124.709C214.983 125.107 214.853 125.5 214.886 126.038C214.942 126.959 215.723 127.143 216.338 127.106C218.027 127.003 220.675 124.916 221.703 124.082C226.764 119.844 233.198 112.826 238.44 103.952L242.893 103.682L230.167 122.567C229.459 123.612 228.892 124.417 228.943 125.261C228.962 125.569 229.085 126.332 230.237 126.262C231.312 126.197 232.734 125.494 235.521 123.166C236.473 122.338 239.481 119.843 242.881 116.168ZM255.842 102.896L260.372 102.621L248.06 120.71C247.704 121.194 247.155 122.306 246.875 122.785C246.668 123.183 246.538 123.577 246.571 124.114C246.622 124.959 247.255 125.229 248.023 125.182C249.712 125.08 252.383 123.376 254.152 122.035C257.684 119.278 261.588 115.033 265.018 110.585C267.163 107.835 269.068 104.944 270.893 101.982L275.346 101.711L262.62 120.596C261.912 121.641 261.345 122.447 261.396 123.291C261.415 123.598 261.538 124.362 262.69 124.292C263.304 124.254 264.288 123.963 266.283 122.532C266.874 122.111 267.388 121.694 267.974 121.196C268.926 120.368 271.934 117.873 275.334 114.198L276.469 115.131C273.666 118.461 271.392 120.372 268.826 122.532C268.168 123.111 264.938 125.774 262.557 125.918C259.87 126.081 259.562 123.557 259.511 122.712C259.483 122.251 259.46 121.867 259.509 121.402C259.529 120.476 259.704 119.54 259.888 118.758C258.147 120.56 256.027 122.461 254.033 123.892C253.072 124.567 249.964 126.683 247.66 126.823C245.971 126.925 244.532 126.088 244.393 123.784C244.276 121.864 244.948 118.972 247.989 114.471L255.842 102.896ZM287.207 115.713L285.936 115.096C300.18 93.2672 305.312 81.3175 308.767 81.1077C309.766 81.0471 310.499 81.6963 310.559 82.6946C310.741 85.6894 301.702 95.487 287.207 115.713ZM283.223 118.652C284.528 118.573 285.673 119.659 285.753 120.965C285.86 122.731 284.057 124.767 281.983 124.893C280.601 124.977 279.542 124.039 279.463 122.734C279.346 120.814 281.073 118.782 283.223 118.652Z" fill="black"/>
</svg>
